<svg id="Layer_1" data-name="Layer 1" xmlns="http://www.w3.org/2000/svg" viewBox="0 0 700 500"><defs><style>.cls-1,.cls-2{fill:#0f4d81;}.cls-2{stroke:#0f4d81;stroke-miterlimit:10;}.cls-3{fill:#f58a63;}</style></defs><path class="cls-1" d="M302.94,165.49a100.88,100.88,0,0,1,5.43-29.35,130.28,130.28,0,0,1,12.69-26.81A134.43,134.43,0,0,1,339.29,86a113.95,113.95,0,0,1,23.29-18.42,173,173,0,0,1,54.91-21,205.75,205.75,0,0,1,115.7,10.33,154.66,154.66,0,0,1,49.13,32.2,125.7,125.7,0,0,1,18.63,23,104.92,104.92,0,0,1,12.13,27.07l.95,3.6c.29,1.21.53,2.43.8,3.64.51,2.42.93,4.77,1.38,7.17.87,4.77,1.71,9.56,2.46,14.36s1.43,9.64,1.91,14.53a104.46,104.46,0,0,1,.57,14.85c-.13,2.52-.39,38.88-1,41.42a29.79,29.79,0,0,1-2.66,7.42,35,35,0,0,1-2,3.36,19.46,19.46,0,0,0-1.58,2.79,15,15,0,0,0-1.35,6c-.08,4.21,1.58,8.53,3.57,12.8,1,2.15,2.09,4.32,3.09,6.62l.71,1.66c.23.52.47,1,.73,1.57.51,1,1,2.09,1.6,3.13,4.54,8.38,9.82,16.51,14.42,25.2a64.16,64.16,0,0,1,3.18,6.84,19.39,19.39,0,0,1,1.08,4,8.48,8.48,0,0,1-.61,4.92,7,7,0,0,1-1.72,2.16,9.49,9.49,0,0,1-2,1.28,17,17,0,0,1-4,1.24,43.72,43.72,0,0,1-7.63.66c-1.25,0-2.47,0-3.7,0l-1.85,0c-.6,0-1.14,0-1.7,0-2.19,0-4.4.38-5.64,1.27s-1.55,2.14-1.07,4.06a11.8,11.8,0,0,0,.49,1.45l.68,1.61,1.45,3.33a58.9,58.9,0,0,1,2.56,7.09c.18.62.33,1.25.47,1.88.08.32.14.64.2,1a9.11,9.11,0,0,1,.15,1.2,5.35,5.35,0,0,1-.64,3,5.94,5.94,0,0,1-2,2.05,17.38,17.38,0,0,1-3.81,1.72c-1.19.41-2.39.76-3.51,1.11l-6.94,2.05a10.9,10.9,0,0,0-2.68,1.16c-.29.2-.37.34-.39.4a.62.62,0,0,0,0,.16.37.37,0,0,0,0,.11,1.3,1.3,0,0,0,.4.49,6,6,0,0,0,1.18.77l3.13,1.81c1.07.63,2.15,1.29,3.21,2a17.51,17.51,0,0,1,3.16,2.72,5.46,5.46,0,0,1,1.34,2.65,3.42,3.42,0,0,1,0,1.11,3.59,3.59,0,0,1-.16.63,3.2,3.2,0,0,1-.19.44,6.69,6.69,0,0,1-.72,1.11,33,33,0,0,1-2.64,2.86,23.21,23.21,0,0,0-4.16,5.13,7.37,7.37,0,0,0-.81,5.48,9.37,9.37,0,0,0,.47,1.38l.33.7.43.86c.55,1.15,1,2.31,1.5,3.5a43.92,43.92,0,0,1,2.09,7.31,33.44,33.44,0,0,1,.64,7.7,22.78,22.78,0,0,1-1.62,7.77,15.46,15.46,0,0,1-.87,1.84l-.25.45-.31.48a6.57,6.57,0,0,1-.67.9,12.16,12.16,0,0,1-3.33,2.78,17.28,17.28,0,0,1-3.76,1.6,26.14,26.14,0,0,1-3.81.87,46,46,0,0,1-7.56.51,69.61,69.61,0,0,1-7.46-.55c-4.89-.6-9.68-1.45-14.46-2.38s-9.54-2-14.22-3-9.4-1.77-14.15-2.43c-9.52-1.32-19.12-2.17-28.73-2.82s-19.26-1-28.9-1.28a216.79,216.79,0,0,0-28.75.71,87.35,87.35,0,0,0-14,2.55,42.66,42.66,0,0,0-12.74,5.69,26.34,26.34,0,0,0-8.95,10.3,33.31,33.31,0,0,0-2.94,13.61l0,1h-1.9l0-1a34.41,34.41,0,0,1,2.67-14.62,28.22,28.22,0,0,1,9.54-11.6,45.17,45.17,0,0,1,13.5-6.38,82.79,82.79,0,0,1,14.47-2.9,219.7,219.7,0,0,1,29.21-1q14.54.27,29.06,1.15c9.69.61,19.36,1.44,29,2.74,4.82.65,9.64,1.4,14.44,2.42s9.43,2.06,14.16,3,9.46,1.72,14.18,2.28a64.4,64.4,0,0,0,7,.5,42.35,42.35,0,0,0,6.89-.49,17.87,17.87,0,0,0,6.15-2,8.15,8.15,0,0,0,2.21-1.83,10.8,10.8,0,0,0,1.45-2.62c1.61-3.95,1.57-8.63.7-13.08a40.57,40.57,0,0,0-1.92-6.61c-.42-1.07-.87-2.13-1.37-3.16l-.39-.77c-.13-.27-.3-.62-.44-.93a12.39,12.39,0,0,1-.71-2.05,11,11,0,0,1-.23-4.43,12.56,12.56,0,0,1,1.39-4.11,27.36,27.36,0,0,1,4.87-6.14,30.61,30.61,0,0,0,2.29-2.46,4.4,4.4,0,0,0,.26-.4v0a1.57,1.57,0,0,0,0,.2.43.43,0,0,0,0,.2c0,.13-.08-.2-.36-.5a13.85,13.85,0,0,0-2.35-2c-.92-.64-1.91-1.25-2.93-1.84l-3.15-1.8a10.22,10.22,0,0,1-1.84-1.24,5.51,5.51,0,0,1-1.68-2.42A4.7,4.7,0,0,1,593,363a5.35,5.35,0,0,1,1.89-2.35,14.48,14.48,0,0,1,3.91-1.79l7-2.09c1.19-.37,2.31-.71,3.4-1.09a14.06,14.06,0,0,0,2.8-1.23,1.57,1.57,0,0,0,.53-.49,1,1,0,0,0,.08-.55,3.49,3.49,0,0,0-.09-.6c-.06-.27-.1-.54-.17-.81-.12-.55-.26-1.09-.41-1.64a54.85,54.85,0,0,0-2.4-6.53L608,340.49l-.74-1.72a15.47,15.47,0,0,1-.67-2,9.32,9.32,0,0,1-.1-4.74,7.54,7.54,0,0,1,2.9-4.19,11.2,11.2,0,0,1,4.21-1.74,21,21,0,0,1,4-.41c.65,0,1.32,0,1.93,0l1.78,0c1.18,0,2.37.06,3.54,0a40.39,40.39,0,0,0,6.81-.61,12.67,12.67,0,0,0,2.9-.89,4.68,4.68,0,0,0,1-.63,2.14,2.14,0,0,0,.53-.65,4,4,0,0,0,.16-2.19,14.42,14.42,0,0,0-.84-3,58.35,58.35,0,0,0-3-6.29C628,303.12,622.73,295,618,286.41c-.58-1.08-1.16-2.18-1.71-3.31-.27-.56-.54-1.14-.8-1.72l-.72-1.67c-.94-2.13-2-4.28-3.07-6.51a54.41,54.41,0,0,1-2.83-7,25.66,25.66,0,0,1-1.26-7.89,20,20,0,0,1,1.77-8,24,24,0,0,1,2-3.52,30.17,30.17,0,0,0,1.7-2.88c2-3.89,2.83-42.14,3-46.77a98.66,98.66,0,0,0-.6-14.11c-.49-4.74-1.17-9.49-1.92-14.23s-1.61-9.48-2.5-14.22c-.44-2.35-.88-4.76-1.38-7.07-.26-1.14-.49-2.3-.77-3.44L608,140.6A99.84,99.84,0,0,0,596.4,115,120.28,120.28,0,0,0,578.49,93a149.17,149.17,0,0,0-47.44-30.84,201.18,201.18,0,0,0-112.36-9.71,167.11,167.11,0,0,0-52.94,20.3c-16.21,9.63-29.48,23.75-39.42,39.81a124.12,124.12,0,0,0-12,25.54,94.44,94.44,0,0,0-5.07,27.5l-.07,3.14-6.29-.14Z"/><path class="cls-1" d="M592.81,368.56H568.22a3.59,3.59,0,0,1,0-7.17h24.59a3.59,3.59,0,1,1,0,7.17Z"/><path class="cls-2" d="M416.51,188.9l-2.57-.09-.62-.07-1.94-.28c-.43-.07-.84-.18-1.23-.27l-.46-.11a.51.51,0,0,1-.3-.22.46.46,0,0,1-.05-.38l1.07-4.25a20.79,20.79,0,0,1-4.28-1.71L404,185.35a.46.46,0,0,1-.3.23.44.44,0,0,1-.37-.05l-1.45-.86c-.41-.27-.78-.54-1.15-.81l-.94-.69c-.17-.13-.3-.25-.44-.37l-1.5-1.33L396.42,180l-.35-.37-.79-1c-.27-.34-.53-.68-.77-1l-.91-1.44a.47.47,0,0,1-.06-.38.51.51,0,0,1,.22-.3l3.77-2.25a21.42,21.42,0,0,1-1.82-4.24l-4.22,1.19a.46.46,0,0,1-.38,0,.51.51,0,0,1-.23-.29l-.12-.46c-.11-.39-.22-.79-.3-1.2l-.33-1.93c0-.21-.07-.42-.08-.63l-.16-2.53.09-2.57c0-.22,0-.43.07-.64l.27-1.91c.08-.43.18-.84.27-1.23l.12-.46a.5.5,0,0,1,.22-.31.52.52,0,0,1,.37,0l4.25,1.08a21.69,21.69,0,0,1,1.71-4.29l-3.83-2.15a.47.47,0,0,1-.23-.3.48.48,0,0,1,.05-.37l.86-1.45c.25-.38.5-.72.76-1.07l.74-1,.36-.42,1.34-1.51,1.5-1.4.4-.37,1-.75c.35-.27.7-.55,1.07-.81l1.45-.91a.48.48,0,0,1,.37-.06.5.5,0,0,1,.31.22l2.24,3.78a21.46,21.46,0,0,1,4.24-1.83L408.68,138a.52.52,0,0,1,.05-.37.44.44,0,0,1,.3-.23l.45-.12c.39-.11.8-.22,1.21-.31l1.68-.29.33,0,.54-.07,2.53-.16,2.57.09c.2,0,.38,0,.55.06l.32,0,1.69.25c.42.07.82.17,1.21.26l.48.12a.46.46,0,0,1,.3.22.49.49,0,0,1,.06.37l-1.08,4.26a21.22,21.22,0,0,1,4.29,1.71l2.15-3.83a.49.49,0,0,1,.29-.24.56.56,0,0,1,.38.05l1.45.86c.35.24.67.47,1,.71l1.1.8.45.39,1.48,1.31,1.29,1.38.47.51.54.69.34.45c.23.3.46.6.68.91l.91,1.45a.49.49,0,0,1-.16.68l-3.77,2.25a20.69,20.69,0,0,1,1.82,4.24l4.22-1.19a.5.5,0,0,1,.38,0,.57.57,0,0,1,.23.3c0,.17.09.33.13.5.11.38.21.76.3,1.16l.28,1.68c0,.12,0,.23.05.33s.06.36.08.54l.16,2.54-.1,2.57a4.87,4.87,0,0,1-.06.55c0,.11,0,.21,0,.32L442,167.4c-.07.42-.17.81-.26,1.19-.05.17-.09.33-.13.5a.46.46,0,0,1-.22.3.48.48,0,0,1-.37.06l-4.72-1.2a.49.49,0,0,1,.24-.94l4.24,1.08v0c.09-.36.19-.74.25-1.1l.24-1.66c0-.09,0-.21,0-.32s0-.32.05-.48l.1-2.5-.16-2.47c0-.14,0-.3-.07-.46s0-.23-.05-.34l-.28-1.65c-.07-.35-.17-.7-.28-1.08v0l-4.22,1.18a.48.48,0,0,1-.37,0,.51.51,0,0,1-.23-.29,19.84,19.84,0,0,0-2.1-4.89.49.49,0,0,1-.06-.37.48.48,0,0,1,.22-.3l3.77-2.24-.64-1c-.19-.27-.42-.56-.64-.86L436,147l-.51-.66-.43-.47-1.26-1.34-1.44-1.28-.41-.35-1.08-.79c-.3-.23-.61-.45-.93-.67l-1-.59-2.14,3.82a.44.44,0,0,1-.29.23.47.47,0,0,1-.37,0,20.23,20.23,0,0,0-4.95-2,.51.51,0,0,1-.3-.22.54.54,0,0,1-.05-.37l1.08-4.25h0c-.38-.1-.75-.19-1.13-.26l-1.65-.23-.33-.05-.47-.05-2.51-.09-2.46.16-.47.06-.34.06-1.64.28c-.36.07-.74.18-1.12.28l1.19,4.21a.47.47,0,0,1,0,.37.5.5,0,0,1-.3.23,20.15,20.15,0,0,0-4.89,2.11.52.52,0,0,1-.37,0,.46.46,0,0,1-.29-.22l-2.25-3.76-1,.63c-.33.23-.68.5-1,.77l-1,.74-.35.32L398,145l-1.31,1.48c-.11.12-.22.24-.32.37l-.73,1c-.24.34-.49.67-.72,1l-.59,1,3.82,2.14a.51.51,0,0,1,.23.29.52.52,0,0,1,0,.37,19.79,19.79,0,0,0-2,4.95.51.51,0,0,1-.22.3.54.54,0,0,1-.37,0l-4.24-1.08c-.1.39-.19.76-.26,1.14l-.27,1.9c0,.18-.05.36-.06.55l-.09,2.51.16,2.46a5.17,5.17,0,0,0,.07.55l.32,1.91c.08.35.18.74.29,1.11l4.21-1.19a.5.5,0,0,1,.6.34,20.34,20.34,0,0,0,2.1,4.89.48.48,0,0,1,.06.37.49.49,0,0,1-.23.3L394.68,176l.64,1c.22.32.47.65.73,1l.77,1,.31.33,1.38,1.48,1.47,1.3c.12.11.25.23.38.33l.93.68c.35.26.71.52,1.08.77l1,.59,2.15-3.82a.48.48,0,0,1,.29-.23.54.54,0,0,1,.37.05,20.23,20.23,0,0,0,4.94,2,.5.5,0,0,1,.3.23.44.44,0,0,1,.05.37l-1.07,4.24c.37.09.76.19,1.14.25l1.92.27a5.15,5.15,0,0,0,.53.07l2.51.09,2.47-.16a5,5,0,0,0,.5-.07l.29,0,1.65-.28c.36-.07.73-.17,1.11-.28h0l-1.19-4.22a.48.48,0,0,1,.05-.37.51.51,0,0,1,.29-.23,20,20,0,0,0,4.89-2.1.44.44,0,0,1,.37,0,.51.51,0,0,1,.3.22l2.24,3.76,1-.63.92-.7,1-.81.38-.34,1.44-1.35,1.2-1.35.43-.5.48-.65c.11-.15.22-.31.34-.46.21-.3.43-.6.63-.9l.59-1-3.82-2.14a.49.49,0,1,1,.48-.85l4.25,2.39a.48.48,0,0,1,.23.29.51.51,0,0,1-.05.38l-.86,1.45c-.22.33-.45.64-.67.95l-.33.46-.51.68-.46.55L435,181l-1.47,1.38-.42.39-1.06.82c-.33.25-.65.5-1,.73l-1.44.92a.51.51,0,0,1-.38.06.49.49,0,0,1-.3-.23l-2.25-3.77a20.93,20.93,0,0,1-4.24,1.82l1.19,4.23a.44.44,0,0,1-.05.37.48.48,0,0,1-.29.23l-.48.13c-.38.1-.78.21-1.19.3l-1.95.32-.59.09Z"/><path class="cls-2" d="M419.4,189.43l-.28,0-2.64.16-2.57-.09a4.82,4.82,0,0,1-.7-.08l-1.93-.27c-.47-.09-.9-.19-1.31-.29l-.44-.11a1.25,1.25,0,0,1-.75-.53,1.2,1.2,0,0,1-.14-.95l.9-3.57a20.94,20.94,0,0,1-3.12-1.25l-1.81,3.22a1.22,1.22,0,0,1-1.68.45l-1.44-.85c-.45-.3-.83-.58-1.21-.86l-.94-.69-.44-.36L397.35,182l-1.82-1.95L394.7,179c-.26-.34-.53-.69-.78-1.05l-.94-1.48a1.21,1.21,0,0,1-.14-.93,1.16,1.16,0,0,1,.56-.76l3.17-1.89a21.68,21.68,0,0,1-1.34-3.09l-3.55,1a1.15,1.15,0,0,1-.92-.1,1.26,1.26,0,0,1-.57-.75l-.13-.45c-.11-.4-.22-.82-.31-1.25l-.33-1.94c0-.24-.07-.47-.09-.7l-.16-2.54.09-2.64a5.28,5.28,0,0,1,.08-.72l.27-1.92c.07-.45.17-.86.27-1.25L390,156a1.21,1.21,0,0,1,1.48-.88l3.57.9a23.34,23.34,0,0,1,1.25-3.12l-3.22-1.81a1.2,1.2,0,0,1-.45-1.67l.86-1.45c.27-.42.53-.77.79-1.13l1.15-1.49,1.34-1.51,2-1.84,1-.77c.36-.28.72-.56,1.1-.83l1.49-.93a1.21,1.21,0,0,1,.91-.16,1.28,1.28,0,0,1,.77.56l1.89,3.18a21.16,21.16,0,0,1,3.09-1.33l-1-3.55a1.17,1.17,0,0,1,.11-.92,1.16,1.16,0,0,1,.74-.58l.45-.12c.47-.13.86-.24,1.26-.31l2-.35a4.21,4.21,0,0,1,.61-.08l2.57-.17,2.64.09.63.08.21.75.1-.71,1.69.24c.42.07.79.16,1.15.25l.6.15a1.17,1.17,0,0,1,.76.54,1.19,1.19,0,0,1,.14.92l-.91,3.59a22.2,22.2,0,0,1,3.13,1.25l1.8-3.23a1.25,1.25,0,0,1,.75-.58,1.21,1.21,0,0,1,.93.14l1.45.85c.39.26.72.5,1.05.74l1.09.8.51.43,1.48,1.32,1.34,1.42.49.54.88,1.13c.27.36.5.66.72,1l.94,1.49a1.25,1.25,0,0,1,.15.93,1.23,1.23,0,0,1-.57.75l-3.17,1.89a21,21,0,0,1,1.33,3.09l3.56-1a1.15,1.15,0,0,1,.92.11,1.22,1.22,0,0,1,.57.74l.14.49c.11.41.22.81.31,1.21l.32,2c0,.29.08.49.1.68l.16,2.56-.09,2.65c0,.2,0,.37-.06.53l-.29,2.09c-.08.45-.18.85-.27,1.23l-.75,0,.7.17-.08.33a1.21,1.21,0,0,1-1.46.91L436.08,169a1.21,1.21,0,0,1,.6-2.34l3.53.89c0-.13.06-.26.08-.38l.26-1.87c0-.23.05-.37.06-.51l.09-2.48-.15-2.39c0-.1,0-.25-.06-.39l-.33-2c0-.11-.05-.22-.08-.34l-3.51,1a1.18,1.18,0,0,1-.93-.11,1.21,1.21,0,0,1-.56-.72,19.4,19.4,0,0,0-2-4.72,1.19,1.19,0,0,1-.14-.92,1.24,1.24,0,0,1,.54-.73l3.14-1.88-.24-.37c-.17-.24-.38-.52-.6-.8l-1.13-1.41L433.24,145l-1.39-1.23-.39-.33-1-.76c-.31-.23-.61-.45-.92-.66l-.32-.19L427.4,145a1.18,1.18,0,0,1-.74.57,1.22,1.22,0,0,1-.91-.12,19.53,19.53,0,0,0-4.77-1.89,1.17,1.17,0,0,1-.74-.56,1.2,1.2,0,0,1-.13-.91l.89-3.53-.38-.08-1.91-.27-.49-.06-2.46-.09-2.4.16-.38.06-2,.33-.34.08,1,3.51a1.21,1.21,0,0,1-.11.91,1.25,1.25,0,0,1-.71.57,20,20,0,0,0-4.74,2,1.19,1.19,0,0,1-.92.13,1.22,1.22,0,0,1-.74-.55l-1.86-3.13-.38.24-.95.73-1.13.9-1.59,1.49-1.58,1.78-.69,1c-.24.32-.48.65-.7,1l-.2.33,3.17,1.78a1.19,1.19,0,0,1,.58.73,1.28,1.28,0,0,1-.11.92,19.12,19.12,0,0,0-1.91,4.77,1.24,1.24,0,0,1-.54.73,1.31,1.31,0,0,1-.94.14l-3.52-.9c0,.13-.05.26-.08.39l-.26,1.87c0,.22-.05.35-.06.49l-.09,2.5.16,2.39a3.12,3.12,0,0,0,.06.41l.33,2c0,.1.05.22.08.33l3.5-1a1.18,1.18,0,0,1,.93.11,1.15,1.15,0,0,1,.56.73,20,20,0,0,0,2,4.71,1.2,1.2,0,0,1-.42,1.66l-3.12,1.86.24.38c.16.23.36.49.57.75l1.17,1.46,1.37,1.47,1.79,1.57.88.64c.4.29.73.53,1.06.75l.34.2,1.78-3.17a1.22,1.22,0,0,1,.71-.57,1.29,1.29,0,0,1,.93.1,19,19,0,0,0,4.77,1.91,1.29,1.29,0,0,1,.74.55,1.25,1.25,0,0,1,.14.92l-.9,3.53.39.08,1.9.27.47.06,2.48.09,2.4-.16.42-.07.42.67-.12-.72,1.65-.28.35-.07-1-3.51a1.2,1.2,0,0,1,.1-.91,1.24,1.24,0,0,1,.72-.58,19.86,19.86,0,0,0,4.73-2,1.21,1.21,0,0,1,1.66.42l1.86,3.12.38-.24c.26-.18.56-.42.87-.65l1.37-1.11,1.43-1.35,1.16-1.3.41-.48.78-1.07c.22-.3.43-.59.63-.89l.19-.32-3.17-1.78a1.21,1.21,0,0,1,.26-2.22,1.14,1.14,0,0,1,.92.11l4.25,2.38a1.24,1.24,0,0,1,.58.73,1.27,1.27,0,0,1-.12.94l-.87,1.45c-.25.38-.47.7-.7,1l-.84,1.15c-.19.24-.35.42-.51.59l-1.23,1.39L434,182.86l-.45.41-1.09.84c-.33.26-.67.51-1,.76l-1.48.93a1.21,1.21,0,0,1-1.68-.4l-1.9-3.18a21.11,21.11,0,0,1-3.09,1.32l1,3.56a1.29,1.29,0,0,1-.12.94,1.21,1.21,0,0,1-.74.56l-.47.13c-.4.11-.81.22-1.23.3l-2,.34Zm.07-1.73,0,.24.1,0Zm14.77-14.65h0Z"/><path class="cls-2" d="M416.24,170.12a7.48,7.48,0,1,1,7.38-7.57A7.49,7.49,0,0,1,416.24,170.12Zm-.18-14a6.51,6.51,0,1,0,6.59,6.42A6.5,6.5,0,0,0,416.06,156.14Z"/><path class="cls-2" d="M416.06,156.14a.5.5,0,0,1-.5-.48l-.12-9.11a.49.49,0,0,1,1,0l.12,9.11A.5.5,0,0,1,416.06,156.14Z"/><path class="cls-2" d="M416.32,176.37a13.73,13.73,0,1,1-.36-27.45.48.48,0,0,1,.49.48.48.48,0,0,1-.48.49,12.76,12.76,0,0,0,.34,25.51.48.48,0,0,1,.49.48A.48.48,0,0,1,416.32,176.37Z"/><path class="cls-2" d="M438.62,175.72a.45.45,0,0,1-.25-.07L422,166.49a.5.5,0,0,1-.18-.67.49.49,0,0,1,.66-.18l16.37,9.17a.48.48,0,0,1,.18.66A.51.51,0,0,1,438.62,175.72Z"/><path class="cls-2" d="M427.67,169.58a.35.35,0,0,1-.24-.06.48.48,0,0,1-.19-.66A12.74,12.74,0,0,0,425,153.43a.48.48,0,0,1,0-.68.49.49,0,0,1,.69,0,13.72,13.72,0,0,1,2.47,16.61A.49.49,0,0,1,427.67,169.58Z"/><path class="cls-2" d="M418.23,145.25a2.32,2.32,0,1,1-2.35-2.29A2.32,2.32,0,0,1,418.23,145.25Z"/><path class="cls-2" d="M427.6,152.86a2.32,2.32,0,1,1-2.35-2.28A2.33,2.33,0,0,1,427.6,152.86Z"/><path class="cls-2" d="M418.63,176A2.32,2.32,0,0,1,414,176a2.32,2.32,0,1,1,4.63-.06Z"/><path class="cls-2" d="M454.85,137.2l-3.2.3h-.78l-2.45,0c-.55,0-1.07-.09-1.57-.14l-.58-.07a.58.58,0,0,1-.42-.22.61.61,0,0,1-.12-.45l.65-5.45a26.38,26.38,0,0,1-5.59-1.43l-2.05,5.1a.61.61,0,0,1-.8.33l-1.94-.83c-.54-.27-1.05-.55-1.55-.82l-1.28-.71c-.22-.13-.41-.26-.6-.39L430.5,131l-2-1.64-.49-.41-1.15-1.15c-.38-.38-.76-.76-1.12-1.15L424.38,125a.57.57,0,0,1-.14-.45.61.61,0,0,1,.23-.41l4.32-3.4a26.5,26.5,0,0,1-3-5l-5,2.16a.64.64,0,0,1-.47,0,.59.59,0,0,1-.33-.33l-.23-.55c-.19-.46-.4-1-.57-1.44l-.71-2.34c-.08-.25-.15-.5-.21-.77l-.61-3.1-.3-3.2c0-.28,0-.54,0-.81l0-2.42c0-.54.09-1.06.15-1.56l.06-.59a.61.61,0,0,1,.23-.41.59.59,0,0,1,.45-.13l5.44.65a26.53,26.53,0,0,1,1.43-5.59l-5.09-2a.61.61,0,0,1-.34-.33.59.59,0,0,1,0-.47l.83-1.94c.25-.5.5-1,.76-1.44l.76-1.39c.14-.22.26-.39.38-.57l1.42-2.1,1.63-2,.43-.51L427,81.47c.4-.4.79-.8,1.2-1.18l1.65-1.36a.68.68,0,0,1,.46-.14.61.61,0,0,1,.41.23l3.4,4.32a26.39,26.39,0,0,1,5-3l-2.16-5a.61.61,0,0,1,.33-.8l.54-.23c.47-.19.95-.39,1.45-.57l2-.62.4-.12c.22-.06.44-.13.66-.18l3.12-.61,3.2-.3h1.09l2.13,0c.54,0,1.05.08,1.54.14l.62.06a.61.61,0,0,1,.41.23.56.56,0,0,1,.13.45l-.65,5.45a26.07,26.07,0,0,1,5.59,1.43l2.05-5.1a.64.64,0,0,1,.33-.34.59.59,0,0,1,.47,0l1.94.82c.47.24.9.48,1.34.72l1.49.82.62.4,2,1.39,1.83,1.5c.22.19.45.37.67.57l.77.76.5.51c.34.33.67.67,1,1l1.37,1.66a.6.6,0,0,1,.13.45.61.61,0,0,1-.23.41l-4.31,3.4a26.25,26.25,0,0,1,2.94,5l5-2.16a.64.64,0,0,1,.47,0,.64.64,0,0,1,.34.33l.24.6c.19.45.39.91.56,1.39l.62,2,.12.4.18.65.6,3.12.3,3.2c0,.25,0,.47,0,.7a2.54,2.54,0,0,0,0,.39l0,2.13c0,.53-.08,1-.14,1.52,0,.21-.05.43-.07.64a.6.6,0,0,1-.22.41.63.63,0,0,1-.46.13l-6-.72a.61.61,0,1,1,.15-1.21l5.43.65v0c.05-.47.11-.95.13-1.41l0-2.09v-.41c0-.2,0-.4,0-.6l-.29-3.12-.59-3c0-.18-.1-.37-.16-.56l-.12-.42-.61-2c-.14-.41-.32-.84-.51-1.29l0,0-5,2.15a.6.6,0,0,1-.8-.32A25,25,0,0,0,470.2,89a.61.61,0,0,1,.1-.86l4.3-3.38-.94-1.15-.94-1c-.17-.17-.34-.33-.5-.5l-.74-.74-.61-.51-1.79-1.46-2-1.36-.57-.37-1.46-.8c-.42-.23-.84-.46-1.27-.67l-1.33-.57-2,5.08a.58.58,0,0,1-.32.33.64.64,0,0,1-.47,0,25.07,25.07,0,0,0-6.45-1.65.59.59,0,0,1-.4-.23.61.61,0,0,1-.13-.45l.65-5.43h0c-.5,0-1-.1-1.44-.13l-2.09,0h-1l-3.12.29-3,.6-.56.15a3.17,3.17,0,0,1-.41.12l-2,.62c-.43.15-.89.34-1.33.53l2.15,5a.61.61,0,0,1,0,.46.64.64,0,0,1-.33.34,24.91,24.91,0,0,0-5.72,3.4.66.66,0,0,1-.45.12.61.61,0,0,1-.41-.23l-3.38-4.3-1.15.95c-.37.34-.75.73-1.13,1.11l-1.07,1.07c-.12.13-.25.3-.39.46l-1.59,1.93-1.38,2c-.12.17-.23.34-.34.51l-.74,1.35c-.25.45-.5.91-.73,1.37l-.57,1.34,5.08,2a.64.64,0,0,1,.33.32.64.64,0,0,1,0,.47,25.28,25.28,0,0,0-1.65,6.45.59.59,0,0,1-.23.4.6.6,0,0,1-.45.13l-5.43-.65c-.05.5-.11,1-.13,1.45l0,2.4a5.3,5.3,0,0,0,0,.69l.29,3.12.59,3c0,.22.12.44.18.66l.71,2.31c.15.43.34.89.53,1.34l5-2.15a.6.6,0,0,1,.8.32,25.87,25.87,0,0,0,3.4,5.72.61.61,0,0,1,.13.45.59.59,0,0,1-.23.4l-4.3,3.39,1,1.14c.33.36.69.72,1.06,1.09l1.12,1.12.44.36,2,1.61,2,1.38.52.34,1.26.69c.48.27,1,.54,1.47.78l1.34.58,2-5.08a.58.58,0,0,1,.32-.33.59.59,0,0,1,.47,0,25.34,25.34,0,0,0,6.44,1.66.6.6,0,0,1,.41.22.61.61,0,0,1,.13.45l-.65,5.43c.48.06,1,.11,1.45.14l2.43,0c.22,0,.44,0,.67,0l3.11-.28,3-.6.61-.18.35-.1,2-.61c.43-.15.87-.33,1.33-.53h0l-2.15-5a.57.57,0,0,1,0-.46.59.59,0,0,1,.33-.33,25.2,25.2,0,0,0,5.72-3.4.61.61,0,0,1,.45-.12.6.6,0,0,1,.41.22l3.38,4.3,1.14-.94c.34-.32.69-.67,1-1l1.16-1.16.42-.49,1.56-1.9,1.27-1.87c.15-.23.31-.45.45-.69l.5-.89.33-.62c.22-.41.44-.81.65-1.22l.57-1.33-5.08-2a.6.6,0,0,1-.34-.79.61.61,0,0,1,.79-.34l5.65,2.27a.58.58,0,0,1,.34.33.66.66,0,0,1,0,.48l-.83,1.93c-.23.46-.45.87-.68,1.29l-.33.62-.52.93-.49.75-1.31,1.92-1.6,1.95-.46.54-1.19,1.19c-.36.36-.72.73-1.1,1.07l-1.64,1.37a.63.63,0,0,1-.46.13.61.61,0,0,1-.41-.23l-3.4-4.31a26.57,26.57,0,0,1-5,2.94l2.16,5a.64.64,0,0,1,0,.47.59.59,0,0,1-.33.33l-.57.23c-.46.2-.94.39-1.42.56l-2.38.73-.71.2Z"/><path class="cls-2" d="M448.41,138.45c-.61,0-1.15-.09-1.68-.15l-.57-.07a1.56,1.56,0,0,1-1.39-1.74l.54-4.53a27.54,27.54,0,0,1-4-1l-1.7,4.24a1.57,1.57,0,0,1-.88.87,1.61,1.61,0,0,1-1.2,0l-1.94-.84c-.6-.29-1.12-.57-1.64-.86l-1.27-.7-.56-.36L430,131.79l-2.08-1.7-.51-.43-1.19-1.19c-.39-.39-.78-.77-1.15-1.17l-1.4-1.69a1.61,1.61,0,0,1-.35-1.17,1.58,1.58,0,0,1,.59-1.07l3.59-2.82a26.84,26.84,0,0,1-2.09-3.53l-4.19,1.79a1.55,1.55,0,0,1-1.23,0,1.59,1.59,0,0,1-.85-.86l-.22-.54c-.2-.48-.41-1-.59-1.49l-.72-2.38a7.39,7.39,0,0,1-.23-.84l-.61-3.13-.32-3.3c0-.28,0-.55,0-.82l0-2.5c0-.59.09-1.13.15-1.64l.06-.61a1.6,1.6,0,0,1,.58-1.06,1.54,1.54,0,0,1,1.18-.32l4.52.54a28.64,28.64,0,0,1,1-4l-4.23-1.7a1.58,1.58,0,0,1-.87-.85,1.61,1.61,0,0,1,0-1.24l.83-1.93c.28-.56.54-1,.81-1.53l1.11-1.93,1.49-2.2,2.14-2.59,1.13-1.14c.49-.49.85-.85,1.22-1.19l1.7-1.4a1.47,1.47,0,0,1,1.19-.35,1.57,1.57,0,0,1,1.05.59L434.32,82a27.76,27.76,0,0,1,3.53-2.09l-1.8-4.19a1.63,1.63,0,0,1,0-1.21,1.59,1.59,0,0,1,.87-.86l.53-.23c.48-.2,1-.41,1.5-.58l2.31-.71.87-.25,3.16-.61,3.3-.32c.24,0,.44,0,.64,0l2.69,0c.59,0,1.12.09,1.64.15l.6.06a1.57,1.57,0,0,1,1.4,1.76L455,77.46a27.21,27.21,0,0,1,4,1l1.7-4.24a1.64,1.64,0,0,1,.85-.87,1.57,1.57,0,0,1,1.22,0l1.95.83c.53.27,1,.51,1.43.76l1.48.81.63.41,2.12,1.44,3.91,3.44c.34.35.68.69,1,1.05l1.4,1.7a1.58,1.58,0,0,1-.26,2.24l-3.57,2.81A26.7,26.7,0,0,1,475,92.4l4.19-1.79a1.54,1.54,0,0,1,2.07.86l.33.79c.17.4.34.81.49,1.24l.7,2.3c.12.4.19.63.24.87l.62,3.16.32,3.3c0,.25,0,.45,0,.65l0,2.68c0,.58-.09,1.11-.15,1.62l-.07.62a1.57,1.57,0,0,1-.59,1.07,1.43,1.43,0,0,1-1.17.32l-6-.72a1.51,1.51,0,0,1-1.05-.59,1.57,1.57,0,0,1,1.43-2.53l4.45.54a3.19,3.19,0,0,0,0-.42l0-2.48c0-.17,0-.35,0-.52l-.29-3.09-.58-2.93c0-.13-.08-.3-.13-.47L479,94.46c0-.11-.08-.22-.13-.34l-4.14,1.77a1.57,1.57,0,0,1-2.06-.82,23.93,23.93,0,0,0-3.27-5.51,1.56,1.56,0,0,1-.32-1.17,1.53,1.53,0,0,1,.58-1l3.53-2.78-.32-.38c-.19-.21-.45-.47-.71-.73l-1.4-1.4-.54-.45-1.79-1.47L466,78.49l-1.4-.77c-.41-.23-.82-.45-1.24-.66L463,76.9l-1.67,4.17a1.61,1.61,0,0,1-.84.86,1.57,1.57,0,0,1-1.22,0,24.16,24.16,0,0,0-6.19-1.57,1.58,1.58,0,0,1-1-.58,1.54,1.54,0,0,1-.33-1.17l.53-4.47-.43,0-3,0-3.09.29-2.94.57-.47.14-2.4.73-.35.13,1.77,4.13a1.58,1.58,0,0,1,0,1.21,1.56,1.56,0,0,1-.84.85A24.8,24.8,0,0,0,435,85.42a1.49,1.49,0,0,1-1.17.33,1.61,1.61,0,0,1-1-.58L430,81.64l-.38.31c-.32.3-.7.68-1.07,1l-1.39,1.46-1.59,1.93-1.33,2c-.12.16-.22.32-.32.48l-.72,1.3c-.28.53-.5.93-.7,1.34l-.16.38,4.15,1.67a1.58,1.58,0,0,1,.88,2,24.45,24.45,0,0,0-1.59,6.21,1.56,1.56,0,0,1-1.73,1.38l-4.48-.53,0,.41,0,2.36c0,.21,0,.42,0,.62l.29,3.1.58,2.94a3.82,3.82,0,0,0,.14.5l.72,2.38c0,.11.08.23.13.34l4.13-1.76a1.58,1.58,0,0,1,1.19,0,1.66,1.66,0,0,1,.87.84,24.36,24.36,0,0,0,3.27,5.51,1.55,1.55,0,0,1,.33,1.16,1.59,1.59,0,0,1-.6,1.06l-3.52,2.76.32.39c.28.3.64.66,1,1l1.49,1.42,1.95,1.61,2,1.32.49.33,1.21.65c.48.27.95.53,1.43.77l.39.16,1.67-4.16a1.59,1.59,0,0,1,.83-.86,1.64,1.64,0,0,1,1.21,0,24.06,24.06,0,0,0,6.21,1.6,1.56,1.56,0,0,1,1.37,1.74l-.53,4.46.43,0,2.39,0c.19,0,.41,0,.61,0l3.07-.3,2.95-.58.5-.14.36-.11,2-.62.35-.12L459,129.32a1.57,1.57,0,0,1,.82-2.06,23.93,23.93,0,0,0,5.51-3.27,1.69,1.69,0,0,1,1.15-.33,1.65,1.65,0,0,1,1.05.58l2.79,3.54.38-.32c.28-.27.62-.6,1-.95l1.17-1.16.28-.33,1.63-2,1.22-1.8c.2-.29.32-.47.43-.65l.8-1.46c.22-.41.44-.81.64-1.2l.15-.37-4.16-1.68a1.52,1.52,0,0,1-.86-.83,1.57,1.57,0,0,1,.83-2.07,1.61,1.61,0,0,1,1.2,0l5.66,2.27a1.56,1.56,0,0,1,.86.85,1.61,1.61,0,0,1,0,1.22l-.83,1.94c-.24.47-.44.86-.65,1.24l-1.46,2.5-1.31,1.93-2.14,2.59-1.22,1.23c-.38.37-.74.74-1.13,1.1l-1.69,1.4a1.58,1.58,0,0,1-1.16.35,1.56,1.56,0,0,1-1.08-.59L466,127.4a27.76,27.76,0,0,1-3.53,2.09l1.79,4.2a1.57,1.57,0,0,1,0,1.22,1.59,1.59,0,0,1-.87.86l-.56.22c-.5.21-1,.41-1.47.59l-2.41.73c-.25.08-.5.15-.76.21l-3.26.64-3.2.3c-.34,0-.61,0-.88,0Zm9.91-3.23.08.24.09,0Zm15.93-20.47Zm.26-.67h0Zm1.52-5.91h0Zm.08-.72h0Zm5.88-3.23-.25.1Z"/><path class="cls-2" d="M451.49,114a9.35,9.35,0,1,1,7.92-10.58A9.35,9.35,0,0,1,451.49,114ZM449,96.66a8.13,8.13,0,1,0,9.21,6.89A8.13,8.13,0,0,0,449,96.66Z"/><path class="cls-2" d="M449,96.66a.6.6,0,0,1-.68-.52L446.7,84.88a.61.61,0,0,1,.52-.69.59.59,0,0,1,.68.51L449.52,96A.61.61,0,0,1,449,96.66Z"/><path class="cls-2" d="M452.6,121.7a17.16,17.16,0,0,1-4.88-34,.61.61,0,0,1,.17,1.21,15.94,15.94,0,0,0,4.53,31.56.61.61,0,0,1,.18,1.21Z"/><path class="cls-2" d="M480.12,117.29a.67.67,0,0,1-.31,0l-21.76-8.72a.61.61,0,0,1-.34-.8.6.6,0,0,1,.79-.33l21.76,8.72a.61.61,0,0,1-.14,1.17Z"/><path class="cls-2" d="M465.57,111.45a.55.55,0,0,1-.31,0,.61.61,0,0,1-.34-.79,16,16,0,0,0-5.33-18.76.61.61,0,1,1,.72-1,17.19,17.19,0,0,1,5.74,20.19A.61.61,0,0,1,465.57,111.45Z"/><path class="cls-2" d="M449.94,82.81a2.89,2.89,0,1,1-3.27-2.45A2.9,2.9,0,0,1,449.94,82.81Z"/><path class="cls-2" d="M462.78,90.74a2.89,2.89,0,1,1-3.28-2.46A2.9,2.9,0,0,1,462.78,90.74Z"/><path class="cls-2" d="M455.4,120.84a2.89,2.89,0,1,1-3.28-2.46A2.89,2.89,0,0,1,455.4,120.84Z"/><path class="cls-2" d="M497.84,193.69l-3.59-1.79c-.3-.16-.57-.33-.83-.5l-2.59-1.64c-.56-.39-1.08-.79-1.58-1.19l-.57-.44a.76.76,0,0,1-.29-.51.73.73,0,0,1,.16-.57l4.27-5.36a32.76,32.76,0,0,1-5-5.2l-5.53,4.07a.79.79,0,0,1-.58.14.78.78,0,0,1-.5-.31l-1.51-2.16c-.4-.64-.75-1.27-1.1-1.9l-.9-1.59c-.15-.29-.26-.55-.38-.8l-1.28-2.87L475,168c-.08-.26-.17-.51-.25-.76l-.47-2c-.15-.65-.3-1.3-.43-2l-.36-2.65a.76.76,0,0,1,.15-.57.73.73,0,0,1,.52-.29L481,159a33.4,33.4,0,0,1,.13-7.21l-6.77-1a.77.77,0,0,1-.51-.3.85.85,0,0,1-.13-.58l.12-.72c.1-.63.2-1.27.34-1.91l.79-2.95c.08-.32.17-.64.28-1l1.4-3.7,1.79-3.6c.16-.3.33-.58.51-.86l1.62-2.56c.39-.56.79-1.07,1.18-1.57l.45-.58a.8.8,0,0,1,.52-.29.76.76,0,0,1,.56.16l5.36,4.28a32.82,32.82,0,0,1,5.2-5l-4.07-5.53a.77.77,0,0,1-.14-.57.76.76,0,0,1,.32-.5l2.16-1.51c.59-.38,1.18-.71,1.76-1l1.72-1,.78-.36,2.89-1.29,3-1,.8-.26,1.88-.45c.67-.16,1.36-.32,2-.46l2.66-.36a.79.79,0,0,1,.57.16.73.73,0,0,1,.28.51l.77,6.82a33.4,33.4,0,0,1,7.21.14l1-6.78a.75.75,0,0,1,.31-.5.72.72,0,0,1,.57-.13l.72.11c.63.1,1.28.21,1.91.35l2.58.67.5.14c.27.08.55.15.82.24l3.71,1.4,3.6,1.8c.27.14.51.29.75.44l.42.26,2.25,1.44c.55.37,1.05.77,1.54,1.15l.61.48a.78.78,0,0,1,.3.51.82.82,0,0,1-.16.57l-4.28,5.36a33.24,33.24,0,0,1,5,5.2l5.53-4.07a.77.77,0,0,1,.57-.14.75.75,0,0,1,.5.31l1.51,2.16c.35.56.65,1.1,1,1.64l1,1.85c.15.3.28.57.4.84l1.25,2.82,1,2.8c.11.34.23.69.33,1l.32,1.31c.07.3.14.59.2.87q.21.87.39,1.74l.36,2.65a.77.77,0,0,1-.67.86l-6.82.77a32.82,32.82,0,0,1-.14,7.21l6.78,1a.78.78,0,0,1,.5.31.73.73,0,0,1,.13.57l-.12.8c-.1.6-.19,1.22-.33,1.84l-.68,2.58c-.06.18-.1.34-.14.5s-.15.55-.24.81l-1.41,3.72-1.78,3.6c-.15.26-.3.51-.45.74s-.18.28-.26.43l-1.43,2.24c-.37.55-.76,1-1.14,1.52l-.5.63a.75.75,0,0,1-1.07.13l-6-4.74a.76.76,0,1,1,1-1.19l5.34,4.27,0,0c.36-.46.74-.94,1.07-1.41l1.39-2.21c.08-.13.18-.28.27-.44s.27-.42.39-.64l1.74-3.5,1.37-3.61c.07-.22.14-.46.2-.7s.09-.35.15-.52l.66-2.53c.12-.54.21-1.11.31-1.71v-.06l-6.76-1a.77.77,0,0,1-.5-.3.78.78,0,0,1-.14-.57,30.94,30.94,0,0,0,.16-8.32.76.76,0,0,1,.16-.56.79.79,0,0,1,.51-.28l6.8-.77-.25-1.83c-.1-.52-.24-1.08-.37-1.64-.06-.29-.13-.58-.19-.87l-.31-1.27c-.09-.29-.2-.62-.31-.95l-.93-2.73-1.22-2.74-.36-.76-1-1.81c-.29-.53-.58-1-.9-1.56l-1-1.48L541,137.34a.7.7,0,0,1-.56.13.73.73,0,0,1-.5-.3,31.46,31.46,0,0,0-5.77-6,.77.77,0,0,1-.12-1.07l4.27-5.35h0c-.49-.39-1-.75-1.44-1.09l-2.2-1.4-.44-.27c-.21-.14-.42-.27-.64-.39L530,119.86l-3.61-1.37-.7-.2-.52-.14-2.53-.67c-.55-.12-1.17-.22-1.76-.31l-1,6.76a.77.77,0,0,1-.3.5.74.74,0,0,1-.56.14,31.75,31.75,0,0,0-8.32-.16.76.76,0,0,1-.56-.16.73.73,0,0,1-.28-.51l-.77-6.8-1.84.25c-.62.13-1.28.28-1.94.44l-1.84.43-.71.24-3,1L497,120.56l-.7.33-1.67.94c-.56.32-1.13.64-1.68,1l-1.49,1,4.06,5.51a.74.74,0,0,1,.14.56.77.77,0,0,1-.3.5,31.56,31.56,0,0,0-6,5.76.73.73,0,0,1-1.06.12l-5.35-4.26c-.39.49-.75,1-1.09,1.45L480.22,136c-.15.25-.31.49-.44.75L478,140.29l-1.36,3.61c-.1.27-.17.55-.25.83l-.77,2.92c-.12.55-.22,1.17-.32,1.76l6.76,1a.77.77,0,0,1,.5.3.74.74,0,0,1,.14.56,31.32,31.32,0,0,0-.15,8.32.8.8,0,0,1-.16.56.75.75,0,0,1-.51.28l-6.8.77.25,1.84c.12.59.27,1.22.41,1.85l.46,1.93.22.67,1,3,1.25,2.8c.1.24.21.48.33.71l.88,1.56c.34.6.68,1.21,1.05,1.8l1,1.49,5.51-4.06a.77.77,0,0,1,.57-.14.73.73,0,0,1,.49.31,31.86,31.86,0,0,0,5.77,6,.73.73,0,0,1,.28.51.72.72,0,0,1-.16.55l-4.27,5.35c.48.37,1,.76,1.46,1.1l2.57,1.62.71.44,3.5,1.74,3.62,1.37.77.21.43.12,2.54.67c.56.13,1.14.22,1.76.32h0l1-6.77a.73.73,0,0,1,.3-.49.78.78,0,0,1,.57-.14,31.76,31.76,0,0,0,8.32.16.72.72,0,0,1,.55.16.78.78,0,0,1,.29.51l.76,6.79,1.84-.25c.57-.11,1.17-.25,1.77-.39l2-.48.77-.25,2.9-1,2.59-1.15.93-.43,1.11-.62.77-.44c.5-.29,1-.57,1.48-.87l1.48-1-4-5.51a.76.76,0,0,1,1.22-.9l4.52,6.13a.76.76,0,0,1-.18,1.08l-2.15,1.51c-.54.33-1,.63-1.57.92l-.77.44-1.16.65c-.35.18-.68.32-1,.47l-2.64,1.18-3,1c-.29.09-.57.19-.86.27l-2,.48c-.62.15-1.24.3-1.87.42l-2.65.36a.73.73,0,0,1-.57-.15.74.74,0,0,1-.29-.51l-.77-6.83a32.82,32.82,0,0,1-7.21-.14L509,196a.77.77,0,0,1-.3.5.75.75,0,0,1-.58.13l-.76-.12c-.61-.1-1.25-.2-1.88-.34l-3-.8c-.3-.07-.6-.15-.9-.25Z"/><path class="cls-2" d="M501.18,196.24l-3.87-1.47-3.6-1.78c-.37-.21-.66-.39-.94-.57l-2.59-1.64c-.59-.41-1.09-.81-1.58-1.19l-.66-.51a2,2,0,0,1-.75-1.31,2,2,0,0,1,.42-1.47l3.55-4.45a33.54,33.54,0,0,1-3.55-3.7l-4.6,3.38a2,2,0,0,1-1.48.36,2.07,2.07,0,0,1-1.3-.81l-1.5-2.16c-.42-.66-.76-1.26-1.09-1.85l-1-1.73c-.19-.37-.31-.65-.43-.92L475,171.56l-1.34-4-.49-2c-.19-.84-.33-1.42-.44-2l-.38-2.71a2,2,0,0,1,1.75-2.22l5.65-.64a34.94,34.94,0,0,1,.1-5.12l-5.64-.86a2,2,0,0,1-1.64-2.26l.12-.73c.11-.69.21-1.34.35-2l.8-3a9.35,9.35,0,0,1,.32-1.06l1.4-3.71,1.84-3.72a11.3,11.3,0,0,1,.58-1l1.61-2.55c.43-.62.84-1.16,1.25-1.67l.46-.58a1.91,1.91,0,0,1,1.32-.74,1.86,1.86,0,0,1,1.45.41l4.45,3.55a35.49,35.49,0,0,1,3.7-3.55l-3.38-4.6a2,2,0,0,1,.47-2.78l2.14-1.5c.67-.42,1.27-.76,1.87-1.1l2.57-1.37,2.91-1.3,4-1.35,1.94-.46c.69-.16,1.38-.33,2.08-.47l2.73-.37a2,2,0,0,1,2.22,1.73l.64,5.67a33.65,33.65,0,0,1,5.12.09l.86-5.63a2,2,0,0,1,.78-1.29,1.93,1.93,0,0,1,1.48-.35l.73.12c.64.09,1.32.2,2,.35l3.13.83c.3.08.63.17.9.27l3.74,1.41,3.71,1.84c.33.18.59.34.85.5l.43.27,2.25,1.43c.61.42,1.14.83,1.64,1.23l.59.45a2,2,0,0,1,.76,1.34,2,2,0,0,1-.42,1.47l-3.55,4.45a33.48,33.48,0,0,1,3.55,3.69l4.6-3.38a2,2,0,0,1,1.49-.36,2,2,0,0,1,1.3.83l1.5,2.13c.4.65.71,1.2,1,1.76l1,1.84c.19.36.32.65.45.93l1.26,2.83,1,2.9c.12.35.24.72.35,1.08l.54,2.27c.13.58.27,1.17.39,1.76l.37,2.73a1.94,1.94,0,0,1-1.74,2.21l-5.65.65a35.07,35.07,0,0,1-.1,5.12l5.63.86a1.9,1.9,0,0,1,1.3.78,2,2,0,0,1,.35,1.47l-.13.78c-.1.66-.2,1.3-.35,1.94l-.81,3.05c-.09.36-.18.66-.28,1L553,172.91l-1.83,3.7c-.18.33-.34.59-.51.85L549,180.14c-.42.59-.82,1.1-1.21,1.59l-.51.66a2,2,0,0,1-1.31.74,1.94,1.94,0,0,1-1.47-.42L538.52,178a2,2,0,0,1-.32-2.76,2,2,0,0,1,2.78-.32l4.38,3.51c.11-.15.22-.3.31-.44l1.58-2.49c.19-.31.31-.5.42-.7l1.71-3.45,1.32-3.5a4.28,4.28,0,0,0,.13-.46h1.25l-1.17-.31.77-2.87q0-.21.09-.45l-5.56-.84a2.05,2.05,0,0,1-1.28-.77,2,2,0,0,1-.37-1.48,29.71,29.71,0,0,0,.15-8,2,2,0,0,1,1.74-2.18l5.57-.62-.09-.62c-.09-.43-.21-1-.34-1.53l-.5-2.12c-.05-.17-.14-.41-.22-.66l-1-2.92-1.52-3.36-1-1.75c-.29-.51-.58-1-.89-1.52l-.29-.41-4.51,3.33a2,2,0,0,1-1.48.36,2,2,0,0,1-1.28-.79,30.51,30.51,0,0,0-5.54-5.76,1.95,1.95,0,0,1-.3-2.77l3.49-4.38-.44-.32-2.49-1.58-.67-.41-3.48-1.72-3.5-1.32-.57-.16-3-.81-.45-.09-.85,5.55a1.91,1.91,0,0,1-.76,1.28,2,2,0,0,1-1.46.37,30.75,30.75,0,0,0-8-.15,2,2,0,0,1-1.45-.42,2,2,0,0,1-.72-1.32L508,118.3l-.62.09c-.45.09-1,.23-1.57.36l-2.71.69-2.95,1L496.81,122l-1.61.91c-.65.37-1.14.65-1.62,1l-.43.29,3.32,4.52a2,2,0,0,1,.36,1.47,1.93,1.93,0,0,1-.79,1.28,30.58,30.58,0,0,0-5.76,5.55,2,2,0,0,1-1.33.72,1.93,1.93,0,0,1-1.44-.42l-4.38-3.49c-.11.14-.21.28-.31.43l-1.58,2.49c-.15.23-.28.43-.39.64l-1.74,3.51-1.32,3.5c-.07.21-.14.45-.2.7l-.78,2.92a4.14,4.14,0,0,1-.09.46l5.55.84a1.95,1.95,0,0,1,1.65,2.24,30.57,30.57,0,0,0-.15,8,2,2,0,0,1-1.73,2.17l-5.56.63.08.62c.1.51.24,1.12.39,1.73l.56,2.24,1.1,3.25,1.52,3.38L481,175c.4.71.7,1.24,1,1.76l.3.42,4.52-3.32a2,2,0,0,1,1.44-.36,1.94,1.94,0,0,1,1.3.77,30.12,30.12,0,0,0,5.55,5.78,2,2,0,0,1,.31,2.77l-3.5,4.38.43.31,2.53,1.6.64.39,3.47,1.73,3.51,1.32.63.17,3,.8.46.09.84-5.56a2,2,0,0,1,.77-1.28,2,2,0,0,1,1.49-.36,30.46,30.46,0,0,0,8,.15,2,2,0,0,1,1.44.4,2,2,0,0,1,.73,1.34l.63,5.56.62-.08c.45-.09,1-.22,1.55-.35l2.77-.72,2.89-1,2.49-1.11c.3-.13.59-.26.88-.41l1.82-1,1.45-.84.41-.3L532,183.5a2,2,0,0,1,.42-2.75,2,2,0,0,1,2.75.43l4.51,6.13a2,2,0,0,1,.36,1.48,2,2,0,0,1-.82,1.3l-2.15,1.5c-.61.39-1.13.69-1.66,1l-1.95,1.1c-.3.16-.56.27-.8.39l-2.95,1.31-4,1.34-2.1.51c-.65.15-1.29.3-1.94.42L519,198a1.88,1.88,0,0,1-1.49-.41,1.91,1.91,0,0,1-.74-1.32l-.64-5.67a33.68,33.68,0,0,1-5.12-.1l-.85,5.64a2.06,2.06,0,0,1-.8,1.3,1.93,1.93,0,0,1-1.49.33l-.74-.11c-.63-.1-1.29-.21-1.95-.36l-3-.8C501.72,196.4,501.44,196.33,501.18,196.24Zm1.66-2.36-.08.31.11,0Zm30.4-11.28h0Z"/><path class="cls-2" d="M509.57,166.79a11.69,11.69,0,1,1,15.38-6A11.7,11.7,0,0,1,509.57,166.79Zm8.75-20a10.17,10.17,0,1,0,5.24,13.39A10.19,10.19,0,0,0,518.32,146.76Z"/><path class="cls-2" d="M518.32,146.76a.75.75,0,0,1-.39-1l5.69-13a.76.76,0,0,1,1.4.61l-5.7,13A.75.75,0,0,1,518.32,146.76Z"/><path class="cls-2" d="M505.66,175.74a21.45,21.45,0,1,1,17.18-39.32.76.76,0,0,1-.61,1.4,19.93,19.93,0,1,0-16,36.52.76.76,0,0,1-.6,1.4Z"/><path class="cls-2" d="M537.81,189.17a.73.73,0,0,1-.31-.25l-17.38-23.59a.76.76,0,1,1,1.22-.91L538.73,188a.76.76,0,0,1-.92,1.15Z"/><path class="cls-2" d="M526.18,173.39a.71.71,0,0,1-.3-.25.76.76,0,0,1,.16-1.06,19.9,19.9,0,0,0,6.67-23.44.76.76,0,0,1,.43-1,.74.74,0,0,1,1,.42,21.27,21.27,0,0,1-.25,16.55,21.48,21.48,0,0,1-6.93,8.68A.8.8,0,0,1,526.18,173.39Z"/><path class="cls-2" d="M528.43,132.67a3.62,3.62,0,1,1-1.87-4.77A3.62,3.62,0,0,1,528.43,132.67Z"/><path class="cls-2" d="M536.85,149.54a3.62,3.62,0,1,1-1.86-4.77A3.62,3.62,0,0,1,536.85,149.54Z"/><path class="cls-2" d="M509.2,176.66a3.62,3.62,0,1,1-1.87-4.76A3.62,3.62,0,0,1,509.2,176.66Z"/><path class="cls-1" d="M93.76,337.71a31.62,31.62,0,0,1-13.6-3,35.35,35.35,0,0,1-11-8,38.58,38.58,0,0,1-10.22-26.47v-60.2h9.42v60.2a29.78,29.78,0,0,0,2,10.8,27.1,27.1,0,0,0,5.42,8.79,25.09,25.09,0,0,0,8.09,5.83,24.65,24.65,0,0,0,19.91,0,25.2,25.2,0,0,0,8.09-5.83,28.79,28.79,0,0,0,7.55-19.59v-60.2h9.24v60.2a28.86,28.86,0,0,0,7.56,19.59,25,25,0,0,0,8.08,5.83,24.65,24.65,0,0,0,19.91,0,25.09,25.09,0,0,0,8.09-5.83,28.79,28.79,0,0,0,7.55-19.59v-60.2H189v60.2a38.58,38.58,0,0,1-10.22,26.47,35.12,35.12,0,0,1-11.1,8,31.9,31.9,0,0,1-13.51,3,32.29,32.29,0,0,1-17.6-5.06A36.06,36.06,0,0,1,124,319a36.32,36.32,0,0,1-12.53,13.67A32.15,32.15,0,0,1,93.76,337.71Z"/><path class="cls-1" d="M243.41,337.52a31.68,31.68,0,0,1-13.6-3,35.63,35.63,0,0,1-11-8,38.71,38.71,0,0,1-10.22-26.47v-60.2H218v60.2a29.79,29.79,0,0,0,2,10.8,26.93,26.93,0,0,0,5.42,8.79,25,25,0,0,0,8.09,5.83,24.65,24.65,0,0,0,19.91,0,25,25,0,0,0,8.08-5.83,28.19,28.19,0,0,0,5.51-8.79,28.63,28.63,0,0,0,2.05-10.8v-60.2h9.24V346.31A38.71,38.71,0,0,1,268,372.78a35.63,35.63,0,0,1-11,8,31.68,31.68,0,0,1-13.6,3v-9.94a23,23,0,0,0,10-2.19,26.44,26.44,0,0,0,8.08-5.93A28.54,28.54,0,0,0,267,357,28,28,0,0,0,269,346.31V325.48a35.89,35.89,0,0,1-11.38,8.79A31.59,31.59,0,0,1,243.41,337.52Z"/><path class="cls-1" d="M302.06,215.39h9.25v25H344.9v9.94H311.31V312.1a14.91,14.91,0,0,0,4.08,10.51,13.08,13.08,0,0,0,10,4.4,12.85,12.85,0,0,0,9.77-4.4,14.87,14.87,0,0,0,4.09-10.51h9.24a26.86,26.86,0,0,1-1.77,9.75,23.85,23.85,0,0,1-5,7.93,25.2,25.2,0,0,1-7.38,5.35,20.39,20.39,0,0,1-9,2,21,21,0,0,1-9.07-2,23.8,23.8,0,0,1-7.37-5.35,26.13,26.13,0,0,1-6.85-17.68Z"/><path class="cls-3" d="M419.72,293a29.19,29.19,0,0,0-1.49-2.83,28.7,28.7,0,0,0-4.22-5.5,28.36,28.36,0,0,0-20.2-8.39h-8.67a16.5,16.5,0,0,1-6.36-1.25l-.45-.2h0a16,16,0,0,1-4.79-3.3,16.33,16.33,0,0,1-3.49-5.17,15.77,15.77,0,0,1-1.26-6.29,16.41,16.41,0,0,1,4.75-11.6,16,16,0,0,1,5.24-3.49,16.33,16.33,0,0,1,6.36-1.26h32.57v-12.3H385.14A28.05,28.05,0,0,0,374,233.62a28.81,28.81,0,0,0-15.3,15.24,28.85,28.85,0,0,0,0,22.29,28.43,28.43,0,0,0,1.86,3.65h0a27.21,27.21,0,0,0,4.29,5.44,29.45,29.45,0,0,0,9.15,6.08,28.05,28.05,0,0,0,11.11,2.23h8.67a16.29,16.29,0,0,1,6.36,1.26c.24.11.49.21.72.33A15.24,15.24,0,0,1,405,293l.33.34a17.65,17.65,0,0,1,3.49,5.24,15.87,15.87,0,0,1,0,12.72,17.78,17.78,0,0,1-3.49,5.24,15.38,15.38,0,0,1-5.17,3.49,16.29,16.29,0,0,1-6.36,1.26H361.1v12.16h32.71a28,28,0,0,0,11.11-2.24A28.12,28.12,0,0,0,420.09,316a28.82,28.82,0,0,0,0-22.23C420,293.52,419.85,293.24,419.72,293Z"/><path class="cls-3" d="M594.8,231.39H581c-.65,1.21-1.47,2.63-2.44,4.26s-1.84,3-2.59,4.26q-5.59,9.79-11.39,19.78-4.42,7.62-8.71,15.11h-5.42q-3.87-6.63-7.88-13.64-5.46-9.51-10.49-18.31l-6.43-11.46h-14l31.17,54.23c.75,1.21,1.47,2.44,2.17,3.7.25.45.52.88.77,1.32l1.34,2.33h0l0,.06v40.39H559.3V293l0-.06h0l.46-.81,4.1-7Z"/><polygon class="cls-3" points="469.61 290.13 457.54 278.07 460.81 274.8 460.81 274.8 460.82 274.8 494.86 240.75 504.23 231.53 487.04 231.53 447.06 271.22 446.78 271.51 446.78 231.53 434.62 231.53 434.62 274.8 434.62 274.8 434.62 290.13 434.62 292.97 434.62 333.42 446.78 333.42 446.78 292.97 455.29 292.97 495.84 333.42 512.89 333.42 472.44 292.97 469.61 290.13"/></svg>